Coordinates
version=1
nRows=13
nColumns=22
inDegrees=yes

Units are S.I. units (second, meters, Newtons, ...)
If the header above contains a line with 'inDegrees', this indicates whether rotational values are in degrees (yes) or radians (no).

endheader
time	pelvis_tilt	pelvis_list	pelvis_rotation	pelvis_tx	pelvis_ty	pelvis_tz	hip_flexion_r	hip_adduction_r	hip_rotation_r	knee_angle_r	ankle_angle_r	subtalar_angle_r	hip_flexion_l	hip_adduction_l	hip_rotation_l	knee_angle_l	ankle_angle_l	subtalar_angle_l	lumbar_extension	lumbar_bending	lumbar_rotation
      2.53000000	      1.30584572	     -3.57517122	      3.07248910	     -0.51858436	      0.98926886	     -0.22713032	     24.66385440	      4.88658066	     -7.40714585	    -30.60562065	      3.31847108	     -3.34565824	     -7.92638939	     -1.22517424	      1.00665830	    -39.05821909	      3.17854737	      7.29062330	    -13.96197856	      5.95636324	     -5.27982084
      2.54000000	      1.30234554	     -3.75214886	      3.42003266	     -0.50835683	      0.99065589	     -0.22689835	     23.95192902	      5.05896938	     -7.67729461	    -30.50479510	      3.99536017	     -3.48767354	     -6.53546451	     -1.71608947	      0.91671938	    -41.92841079	      1.52416811	      7.72963217	    -13.85838973	      6.22169870	     -5.36731664
      2.55000000	      1.30197171	     -3.95130230	      3.76687022	     -0.49831093	      0.99201095	     -0.22664673	     23.21575719	      5.26897173	     -7.93986105	    -30.33147690	      4.62496973	     -3.60105492	     -5.04578180	     -2.26946930	      0.76377549	    -44.83168585	      0.10569163	      8.09931037	    -13.77352456	      6.49857468	     -5.40471933
      2.56000000	      1.26799884	     -4.14812059	      4.09460658	     -0.48844037	      0.99324250	     -0.22632989	     22.51708305	      5.49662150	     -8.16638108	    -30.13242312	      5.24839344	     -3.72155797	     -3.43943616	     -2.85049319	      0.56401851	    -47.71606380	     -1.03464338	      8.49908758	    -13.66354229	      6.74779090	     -5.37227632
      2.57000000	      1.32597417	     -4.40445522	      4.42933740	     -0.47867291	      0.99457306	     -0.22598775	     21.68920910	      5.81146469	     -8.39422032	    -29.83841177	      5.76261854	     -3.80357412	     -1.88052718	     -3.54784167	      0.31079136	    -50.50533012	     -1.85433774	      8.68835876	    -13.66667236	      7.06193615	     -5.31310191
      2.58000000	      1.39343583	     -4.65681614	      4.73773285	     -0.46902679	      0.99586495	     -0.22558144	     20.84409718	      6.15303963	     -8.56349071	    -29.50673988	      6.26737164	     -3.89448691	     -0.30544462	     -4.25384425	      0.06188340	    -53.14884458	     -2.35997697	      8.79117643	    -13.69169588	      7.35125477	     -5.16768722
      2.59000000	      1.48151506	     -4.88983012	      5.01694627	     -0.45948804	      0.99714184	     -0.22511583	     19.97455178	      6.49968286	     -8.68915759	    -29.15248632	      6.75004002	     -3.99272554	      1.25514637	     -4.95690298	     -0.20791832	    -55.60308641	     -2.55660452	      8.75519775	    -13.74928173	      7.60254814	     -4.97169602
      2.60000000	      1.58803135	     -5.09908561	      5.26271882	     -0.45006575	      0.99841681	     -0.22459389	     19.08407236	      6.84257249	     -8.77975661	    -28.77798983	      7.18656400	     -4.09792328	      2.78784584	     -5.63756025	     -0.48106681	    -57.83527103	     -2.48577484	      8.51755012	    -13.84122681	      7.81218925	     -4.72806316
      2.61000000	      1.69085539	     -5.25829501	      5.46525833	     -0.44076040	      0.99967605	     -0.22402990	     18.19473708	      7.14911064	     -8.83007545	    -28.39113623	      7.61407763	     -4.24548701	      4.29741857	     -6.24222982	     -0.74040889	    -59.81242720	     -2.27013782	      7.84209177	    -13.94225245	      7.94793144	     -4.42296912
      2.62000000	      1.85765637	     -5.39194759	      5.62150563	     -0.43152101	      1.00105591	     -0.22341676	     17.20692854	      7.45877926	     -8.81477044	    -27.94282975	      8.00424039	     -4.34669420	      5.68814991	     -6.79924376	     -0.99037882	    -61.50303224	     -1.90232014	      7.08827457	    -14.12864393	      8.04565418	     -4.04703358
      2.63000000	      2.03138339	     -5.48321913	      5.71989642	     -0.42236617	      1.00244807	     -0.22276171	     16.19940817	      7.73917868	     -8.74795360	    -27.47229994	      8.37069851	     -4.44158987	      7.01829352	     -7.27516308	     -1.23649060	    -62.91019523	     -1.45174605	      6.26900293	    -14.33507974	      8.08210997	     -3.60382169
      2.64000000	      2.20481525	     -5.53648809	      5.75592537	     -0.41329083	      1.00383658	     -0.22206296	     15.18003218	      7.99094467	     -8.62910856	    -26.98190977	      8.71416686	     -4.52794448	      8.28967768	     -7.66847813	     -1.47897450	    -64.03337266	     -0.95140951	      5.46937718	    -14.55366985	      8.06166075	     -3.09463135
      2.65000000	      2.36783058	     -5.55746871	      5.72907584	     -0.40427786	      1.00520309	     -0.22133336	     14.15470004	      8.21550008	     -8.45643705	    -26.46417446	      9.03663322	     -4.60219568	      9.50722100	     -7.98152469	     -1.72147308	    -64.87072244	     -0.42224084	      4.74861167	    -14.76834459	      7.99242316	     -2.52728741
